<svg width="24" height="24" viewBox="0 0 24 24" xmlns="http://www.w3.org/2000/svg">
<rect width="24" height="24" rx="12" fill="#FAF7F8"/>
<path d="M12.3523 7.31818H15.0767V14.2983C15.0734 14.9612 14.906 15.5445 14.5746 16.0483C14.2464 16.5488 13.7924 16.9399 13.2124 17.2216C12.6357 17.5 11.9711 17.6392 11.2188 17.6392C10.5658 17.6392 9.96922 17.5265 9.42898 17.3011C8.88873 17.0724 8.45786 16.7145 8.13636 16.2273C7.81487 15.7367 7.65578 15.1004 7.65909 14.3182H10.4233C10.4332 14.5734 10.4763 14.7888 10.5526 14.9645C10.6321 15.1402 10.7415 15.2727 10.8807 15.3622C11.0232 15.4484 11.1955 15.4915 11.3977 15.4915C11.6032 15.4915 11.7756 15.4467 11.9148 15.3572C12.0573 15.2678 12.165 15.1352 12.2379 14.9595C12.3108 14.7805 12.349 14.5601 12.3523 14.2983V7.31818Z" fill="#291334"/>
</svg>
